<?xml version="1.0" encoding="utf-8"?>
<!-- Generator: Adobe Illustrator 24.1.2, SVG Export Plug-In . SVG Version: 6.00 Build 0)  -->
<svg version="1.1" id="Layer_1" xmlns="http://www.w3.org/2000/svg" xmlns:xlink="http://www.w3.org/1999/xlink" x="0px" y="0px"
	 viewBox="0 0 1190.55 595.28" style="enable-background:new 0 0 1190.55 595.28;" xml:space="preserve">
<style type="text/css">
	.st0{fill:url(#SVGID_1_);}
	.st1{fill:url(#SVGID_2_);}
	.st2{fill:url(#SVGID_3_);}
	.st3{fill:url(#SVGID_4_);}
	.st4{fill:url(#SVGID_5_);}
	.st5{fill:url(#SVGID_6_);}
	.st6{fill:url(#SVGID_7_);}
	.st7{fill:url(#SVGID_8_);}
	.st8{fill:url(#SVGID_9_);}
	.st9{fill:url(#SVGID_10_);}
	.st10{fill:url(#SVGID_11_);}
	.st11{fill:url(#SVGID_12_);}
	.st12{fill:url(#SVGID_13_);}
	.st13{fill:url(#SVGID_14_);}
	.st14{fill:url(#SVGID_15_);}
	.st15{fill:url(#SVGID_16_);}
	.st16{fill:url(#SVGID_17_);}
	.st17{fill:url(#SVGID_18_);}
</style>
<g>
	<g>
		<linearGradient id="SVGID_1_" gradientUnits="userSpaceOnUse" x1="574.855" y1="282.782" x2="574.1705" y2="298.3036">
			<stop  offset="0" style="stop-color:#F5F4BD"/>
			<stop  offset="0.2764" style="stop-color:#CCE197"/>
			<stop  offset="0.6693" style="stop-color:#8AC97D"/>
			<stop  offset="0.9968" style="stop-color:#56C1A6"/>
		</linearGradient>
		<path class="st0" d="M581.98,292.85c-1.11,5.5-5.36,9.27-9.51,8.44c-4.14-0.83-6.61-5.97-5.5-11.46c1.11-5.5,5.36-9.27,9.51-8.44
			S583.09,287.35,581.98,292.85z"/>
		<linearGradient id="SVGID_2_" gradientUnits="userSpaceOnUse" x1="597.035" y1="261.5958" x2="605.6835" y2="280.6423">
			<stop  offset="0" style="stop-color:#F5F4BD"/>
			<stop  offset="0.2764" style="stop-color:#CCE197"/>
			<stop  offset="0.6693" style="stop-color:#8AC97D"/>
			<stop  offset="0.9968" style="stop-color:#56C1A6"/>
		</linearGradient>
		<path class="st1" d="M609.87,266.25c3.37,5.83,2.29,12.75-2.4,15.46c-4.69,2.71-11.23,0.18-14.59-5.65
			c-3.37-5.83-2.29-12.75,2.4-15.46S606.51,260.42,609.87,266.25z"/>
		<linearGradient id="SVGID_3_" gradientUnits="userSpaceOnUse" x1="552.0007" y1="263.5552" x2="548.1468" y2="279.2162">
			<stop  offset="0" style="stop-color:#F5F4BD"/>
			<stop  offset="0.2764" style="stop-color:#CCE197"/>
			<stop  offset="0.6693" style="stop-color:#8AC97D"/>
			<stop  offset="0.9968" style="stop-color:#56C1A6"/>
		</linearGradient>
		<path class="st2" d="M556.9,275.77c-1.93,5.38-6.75,8.58-10.76,7.14c-4.01-1.44-5.69-6.97-3.76-12.36s6.75-8.58,10.76-7.14
			C557.15,264.85,558.83,270.39,556.9,275.77z"/>
		<g>
			<linearGradient id="SVGID_4_" gradientUnits="userSpaceOnUse" x1="555.2893" y1="318.1889" x2="598.0795" y2="318.1889">
				<stop  offset="0" style="stop-color:#CCE197"/>
				<stop  offset="0.2251" style="stop-color:#8AC97D"/>
				<stop  offset="0.4902" style="stop-color:#56C1A6"/>
				<stop  offset="0.6949" style="stop-color:#56BEA9"/>
				<stop  offset="0.9377" style="stop-color:#3CAAE1"/>
			</linearGradient>
			<path class="st3" d="M602.35,287.08c2.62-0.29,4.93,0.04,7.07,1.63c1.68,1.25,2.84,3.09,3.3,5.13
				c2.28,10.23,1.14,20.43-2.71,30.62c-1.82,4.8-4.41,9.29-7.85,13.11c-2.59,2.88-5.6,5.45-9.1,7.63
				c-4.07,2.53-8.73,4.03-13.52,4.21c-5.67,0.22-11.33-0.84-16.99-2.97c-3.29-1.24-6.4-2.92-9.29-4.94
				c-9.13-6.38-14.88-14.03-18.29-22.54c-3.84-10.76-4.52-20.19-0.77-27.77c0.57-1.14,1.4-2.14,2.45-2.87
				c2.83-1.97,5.84-1.72,9.16-0.12c2.28,1.1,4.26,2.75,5.75,4.79c3,4.13,5.87,10.48,8.66,18.13c0.45,1.23,0.99,2.43,1.61,3.58
				l1.86,3.45c1.8,3.34,4.64,6.04,8.15,7.49c4.37,1.8,8.94,1.82,13.76-0.21c3.66-1.54,7.01-6.06,7.65-9.98
				c1.25-7.65,0.94-10.71,1.77-21.77C595.24,290.81,598.37,287.52,602.35,287.08z"/>
			<linearGradient id="SVGID_5_" gradientUnits="userSpaceOnUse" x1="544.3071" y1="311.9934" x2="602.761" y2="311.9934">
				<stop  offset="0" style="stop-color:#FFFFFF"/>
				<stop  offset="0.1917" style="stop-color:#DEE346"/>
				<stop  offset="0.5639" style="stop-color:#48BCBB"/>
				<stop  offset="0.7332" style="stop-color:#56BEA9"/>
				<stop  offset="0.9377" style="stop-color:#3CAAE1"/>
			</linearGradient>
			<path class="st4" d="M549.83,309.97c-5.49-0.44-6.88,2.51-4.19,8.86c7.28,10.62,17.04,16.32,28.84,17.93
				c13.21,1.04,18.52-6.87,19-20.26c2.17-6.34,3.04-13.73,3.21-21.68c0.3-4.32,2.59-6.62,6.07-7.69c-5.04,2.2-4.34,0.9-12.96,9.3
				c-3.53,3.58-7.06,6.31-10.58,7.37c-2.38,0.43-4.89,0.3-7.47-0.21c-2.31-0.55-4.5-1.37-6.57-2.48c-0.74-0.4-1.54-0.66-2.38-0.7
				c-2.47-0.11-3.47,1.23-2.64,4.39c1.33,3.36,4.21,6.31,9.72,8.56c3.76,1.27,6.87,2.9,9.03,5.04c0.28,0.28,0.11,0.77-0.29,0.8
				c-1.83,0.17-3.44-0.05-4.87-0.59c-0.65-0.25-1.31-0.5-1.98-0.68c-3.44-0.93-6.97-2.49-10.56-4.4
				C557.79,311.91,553.98,310.73,549.83,309.97z"/>
		</g>
	</g>
	<g>
		<linearGradient id="SVGID_6_" gradientUnits="userSpaceOnUse" x1="416.9408" y1="361.9046" x2="416.9471" y2="382.2663">
			<stop  offset="0.0141" style="stop-color:#A7D8BB"/>
			<stop  offset="0.385" style="stop-color:#7CCECD"/>
			<stop  offset="0.7141" style="stop-color:#38BADD"/>
			<stop  offset="1" style="stop-color:#36B2D8"/>
		</linearGradient>
		<path class="st5" d="M413.55,366.61h-7.23v-5.64h21.26v5.64h-7.23v19.49h-6.79V366.61z"/>
		<linearGradient id="SVGID_7_" gradientUnits="userSpaceOnUse" x1="441.2767" y1="364.8054" x2="441.7275" y2="386.7378">
			<stop  offset="0.0141" style="stop-color:#A7D8BB"/>
			<stop  offset="0.385" style="stop-color:#7CCECD"/>
			<stop  offset="0.7141" style="stop-color:#38BADD"/>
			<stop  offset="1" style="stop-color:#36B2D8"/>
		</linearGradient>
		<path class="st6" d="M430.49,360.97h6.79v9.34h8.35v-9.34h6.79v25.13h-6.79v-10.15h-8.35v10.15h-6.79V360.97z"/>
		<linearGradient id="SVGID_8_" gradientUnits="userSpaceOnUse" x1="466.3615" y1="362.8846" x2="466.3615" y2="381.6767">
			<stop  offset="0.0141" style="stop-color:#A7D8BB"/>
			<stop  offset="0.385" style="stop-color:#7CCECD"/>
			<stop  offset="0.7141" style="stop-color:#38BADD"/>
			<stop  offset="1" style="stop-color:#36B2D8"/>
		</linearGradient>
		<path class="st7" d="M457.11,360.97h17.93v5.64H463.9v4.07h7.95v5.3h-7.95v4.65h11.72v5.47h-18.51V360.97z"/>
		<linearGradient id="SVGID_9_" gradientUnits="userSpaceOnUse" x1="499.0083" y1="361.7685" x2="499.0083" y2="384.7239">
			<stop  offset="0.0141" style="stop-color:#A7D8BB"/>
			<stop  offset="0.385" style="stop-color:#7CCECD"/>
			<stop  offset="0.7141" style="stop-color:#38BADD"/>
			<stop  offset="1" style="stop-color:#36B2D8"/>
		</linearGradient>
		<path class="st8" d="M487.53,373.43c0-7.88,4.35-12.94,11.82-12.94c4.75,0,8.83,1.6,10.59,8.18l-6.21,1.73
			c-0.98-3.23-2.44-4.31-4.41-4.31c-1.09,0-4.96,0.17-4.96,7.23c0,7.03,3.46,7.81,5.26,7.81c2.17,0,3.7-1.19,4.41-3.02h-3.67v-4.96
			h10.12v12.94h-5.33v-3.33h-0.07c-0.34,1.22-2.55,3.8-6.32,3.8C490.76,386.58,487.53,381.01,487.53,373.43z"/>
		<linearGradient id="SVGID_10_" gradientUnits="userSpaceOnUse" x1="523.7432" y1="363.3962" x2="523.7432" y2="380.7488">
			<stop  offset="0.0141" style="stop-color:#A7D8BB"/>
			<stop  offset="0.385" style="stop-color:#7CCECD"/>
			<stop  offset="0.7141" style="stop-color:#38BADD"/>
			<stop  offset="1" style="stop-color:#36B2D8"/>
		</linearGradient>
		<path class="st9" d="M515.07,360.97h6.79v19.66h10.56v5.47h-17.35V360.97z"/>
		<linearGradient id="SVGID_11_" gradientUnits="userSpaceOnUse" x1="544.5231" y1="362.3264" x2="544.5231" y2="380.8337">
			<stop  offset="0.0141" style="stop-color:#A7D8BB"/>
			<stop  offset="0.385" style="stop-color:#7CCECD"/>
			<stop  offset="0.7141" style="stop-color:#38BADD"/>
			<stop  offset="1" style="stop-color:#36B2D8"/>
		</linearGradient>
		<path class="st10" d="M535.27,360.97h17.93v5.64h-11.14v4.07h7.95v5.3h-7.95v4.65h11.72v5.47h-18.51V360.97z"/>
		<linearGradient id="SVGID_12_" gradientUnits="userSpaceOnUse" x1="566.4233" y1="362.1404" x2="566.4233" y2="380.6477">
			<stop  offset="0.0141" style="stop-color:#A7D8BB"/>
			<stop  offset="0.385" style="stop-color:#7CCECD"/>
			<stop  offset="0.7141" style="stop-color:#38BADD"/>
			<stop  offset="1" style="stop-color:#36B2D8"/>
		</linearGradient>
		<path class="st11" d="M557.17,360.97h17.93v5.64h-11.14v4.07h7.95v5.3h-7.95v4.65h11.72v5.47h-18.51V360.97z"/>
		<linearGradient id="SVGID_13_" gradientUnits="userSpaceOnUse" x1="599.0696" y1="359.9545" x2="599.0696" y2="382.9102">
			<stop  offset="0.0141" style="stop-color:#A7D8BB"/>
			<stop  offset="0.385" style="stop-color:#7CCECD"/>
			<stop  offset="0.7141" style="stop-color:#38BADD"/>
			<stop  offset="1" style="stop-color:#36B2D8"/>
		</linearGradient>
		<path class="st12" d="M587.59,373.43c0-7.88,4.35-12.94,11.82-12.94c4.75,0,8.83,1.6,10.59,8.18l-6.21,1.73
			c-0.98-3.23-2.44-4.31-4.41-4.31c-1.09,0-4.96,0.17-4.96,7.23c0,7.03,3.46,7.81,5.26,7.81c2.17,0,3.7-1.19,4.41-3.02h-3.67v-4.96
			h10.12v12.94h-5.33v-3.33h-0.07c-0.34,1.22-2.55,3.8-6.32,3.8C590.82,386.58,587.59,381.01,587.59,373.43z"/>
		<linearGradient id="SVGID_14_" gradientUnits="userSpaceOnUse" x1="625.18" y1="363.2525" x2="625.18" y2="387.3629">
			<stop  offset="0.0141" style="stop-color:#A7D8BB"/>
			<stop  offset="0.385" style="stop-color:#7CCECD"/>
			<stop  offset="0.7141" style="stop-color:#38BADD"/>
			<stop  offset="1" style="stop-color:#36B2D8"/>
		</linearGradient>
		<path class="st13" d="M622.02,360.87h6.32l8.9,25.23h-6.86l-1.53-4.69h-7.91l-1.63,4.69h-6.18L622.02,360.87z M627.32,376.59
			l-2.31-6.96h-0.07l-2.41,6.96H627.32z"/>
		<linearGradient id="SVGID_15_" gradientUnits="userSpaceOnUse" x1="650.2043" y1="363.6753" x2="650.2043" y2="384.254">
			<stop  offset="0.0141" style="stop-color:#A7D8BB"/>
			<stop  offset="0.385" style="stop-color:#7CCECD"/>
			<stop  offset="0.7141" style="stop-color:#38BADD"/>
			<stop  offset="1" style="stop-color:#36B2D8"/>
		</linearGradient>
		<path class="st14" d="M639.91,360.97h9.81c6.45,0,10.39,2.14,10.39,8.18c0,3.94-1.66,6.21-4.96,7.33l5.33,9.61h-7.2l-4.86-8.73
			h-1.87v8.73h-6.66V360.97z M649.49,372.21c2.78,0,4.01-0.78,4.01-2.89c0-2.11-1.22-2.85-4.01-2.85h-2.92v5.74H649.49z"/>
		<linearGradient id="SVGID_16_" gradientUnits="userSpaceOnUse" x1="675.3643" y1="363.4892" x2="675.3643" y2="383.4331">
			<stop  offset="0.0141" style="stop-color:#A7D8BB"/>
			<stop  offset="0.385" style="stop-color:#7CCECD"/>
			<stop  offset="0.7141" style="stop-color:#38BADD"/>
			<stop  offset="1" style="stop-color:#36B2D8"/>
		</linearGradient>
		<path class="st15" d="M664.33,360.97h8.25c7.47,0,13.82,2.85,13.82,12.4c0,9.88-6.45,12.73-13.82,12.73h-8.25V360.97z
			 M672.95,380.63c5.13,0,6.66-2.1,6.66-7.2c0-4.65-1.56-6.83-6.72-6.83h-1.8v14.02H672.95z"/>
		<linearGradient id="SVGID_17_" gradientUnits="userSpaceOnUse" x1="699.1491" y1="364.2334" x2="699.1491" y2="382.7408">
			<stop  offset="0.0141" style="stop-color:#A7D8BB"/>
			<stop  offset="0.385" style="stop-color:#7CCECD"/>
			<stop  offset="0.7141" style="stop-color:#38BADD"/>
			<stop  offset="1" style="stop-color:#36B2D8"/>
		</linearGradient>
		<path class="st16" d="M689.9,360.97h17.93v5.64h-11.14v4.07h7.95v5.3h-7.95v4.65h11.72v5.47H689.9V360.97z"/>
		<linearGradient id="SVGID_18_" gradientUnits="userSpaceOnUse" x1="722.8829" y1="363.3032" x2="722.8829" y2="385.4778">
			<stop  offset="0.0141" style="stop-color:#A7D8BB"/>
			<stop  offset="0.385" style="stop-color:#7CCECD"/>
			<stop  offset="0.7141" style="stop-color:#38BADD"/>
			<stop  offset="1" style="stop-color:#36B2D8"/>
		</linearGradient>
		<path class="st17" d="M711.8,360.97h6.69l9.2,14.09h0.07v-14.09h6.21v25.13h-6.28l-9.61-14.06h-0.07v14.06h-6.21V360.97z"/>
	</g>
</g>
</svg>
