<?xml version="1.0" standalone="no"?>
<!DOCTYPE svg PUBLIC "-//W3C//DTD SVG 20010904//EN"
 "http://www.w3.org/TR/2001/REC-SVG-20010904/DTD/svg10.dtd">
<svg version="1.0" xmlns="http://www.w3.org/2000/svg"
 width="839.000000pt" height="670.000000pt" viewBox="0 0 839.000000 670.000000"
 preserveAspectRatio="xMidYMid meet">

<g transform="translate(0.000000,670.000000) scale(0.100000,-0.100000)"
fill="#000000" stroke="none">
<path d="M0 3350 l0 -3350 4195 0 4195 0 0 3350 0 3350 -4195 0 -4195 0 0
-3350z m4859 1575 c193 -97 212 -417 27 -464 -136 -34 -287 114 -287 280 0 70
10 105 43 151 43 61 135 75 217 33z m-1023 -99 c78 -91 65 -244 -29 -329 -116
-104 -260 -1 -244 173 6 73 42 139 95 176 31 21 45 25 91 21 49 -3 59 -8 87
-41z m477 -351 c134 -64 116 -321 -26 -386 -55 -25 -87 -24 -127 4 -92 61
-107 213 -33 319 47 69 122 94 186 63z m-667 -129 c95 -44 142 -110 229 -321
84 -205 83 -204 144 -234 99 -50 194 -84 256 -91 33 -4 64 -5 68 -3 20 12 -38
51 -171 114 -195 95 -250 154 -228 245 7 25 10 26 59 22 29 -2 81 -18 117 -34
54 -24 78 -29 145 -29 110 0 151 22 300 165 130 125 196 170 264 181 94 14
164 -24 204 -111 17 -37 21 -71 25 -192 7 -220 -19 -356 -98 -523 -82 -171
-221 -322 -361 -392 -95 -48 -99 -49 -191 -62 -146 -20 -360 19 -513 96 -197
99 -368 275 -453 464 -68 151 -92 261 -92 419 0 116 14 181 51 235 52 76 149
96 245 51z m-942 -1591 c47 -20 96 -81 96 -119 0 -12 -11 -16 -46 -16 -38 0
-51 5 -74 30 -26 27 -34 30 -92 30 -72 -1 -91 -11 -113 -63 -34 -82 -10 -178
51 -203 53 -22 127 -11 155 24 l21 27 -49 5 -48 5 0 40 0 40 98 3 97 3 0 -63
c0 -105 -51 -160 -157 -174 -121 -15 -223 22 -258 95 -26 53 -32 180 -11 236
21 55 74 102 123 110 21 4 43 8 48 10 18 7 127 -7 159 -20z m2303 4 c41 -13
103 -81 103 -114 0 -23 -3 -25 -48 -25 -42 0 -51 4 -70 30 -21 28 -27 30 -91
30 -58 0 -71 -3 -90 -24 -47 -50 -50 -177 -5 -221 43 -43 136 -44 182 -2 33
30 28 37 -29 37 l-50 0 3 43 3 42 99 3 98 3 -4 -75 c-3 -63 -7 -79 -28 -101
-45 -48 -78 -59 -175 -60 -163 0 -224 54 -233 206 -8 145 40 216 163 240 45 8
124 3 172 -12z m-4077 -34 l0 -45 -70 0 -70 0 0 -175 0 -175 -54 0 c-49 0 -53
2 -53 23 0 12 0 91 -1 175 l-2 152 -70 0 -70 0 0 45 0 45 195 0 195 0 0 -45z
m250 -45 l0 -90 105 0 105 0 0 90 0 90 55 0 55 0 0 -159 c0 -87 -3 -186 -6
-220 l-7 -61 -43 0 -44 0 -1 78 c-1 42 -1 80 0 85 0 4 -48 7 -109 7 l-110 0 0
-62 c0 -99 -5 -108 -55 -108 l-42 0 -6 143 c-4 78 -7 177 -7 220 l0 77 55 0
55 0 0 -90z m825 45 l0 -40 -127 -3 -128 -3 0 -44 0 -45 96 0 95 0 -3 -42 -3
-43 -94 -5 -93 -5 -3 -42 -3 -43 129 0 129 0 0 -40 0 -40 -175 0 c-96 0 -175
1 -176 3 0 1 -3 100 -6 220 l-6 217 184 -2 184 -3 0 -40z m1045 -135 l0 -180
125 0 125 0 0 -40 0 -40 -173 0 -174 0 -6 128 c-4 70 -7 169 -7 220 l0 92 55
0 55 0 0 -180z m760 135 l0 -45 -125 0 -125 0 0 -45 0 -45 96 0 95 0 -3 -42
c-3 -48 5 -45 -130 -47 l-68 -1 0 -45 0 -45 130 0 130 0 0 -40 0 -40 -180 0
-180 0 0 220 0 220 180 0 180 0 0 -45z m510 0 l0 -45 -130 0 -130 0 0 -45 0
-45 101 0 100 0 -3 -42 -3 -43 -97 -3 -98 -3 0 -44 0 -45 130 0 130 0 0 -40 0
-40 -179 0 -178 0 -5 213 c-3 116 -4 215 -1 220 2 4 85 7 184 7 l179 0 0 -45z
m1302 -170 c42 -115 77 -213 77 -217 1 -5 -20 -8 -46 -8 -46 0 -49 2 -65 40
l-17 40 -89 0 -89 0 -13 -40 c-13 -39 -14 -40 -62 -40 -35 0 -49 4 -46 13 2 7
37 106 78 220 l75 208 60 -3 60 -3 77 -210z m531 201 c50 -21 70 -50 75 -111
6 -73 -3 -103 -44 -141 l-34 -33 40 -66 c22 -36 40 -68 40 -70 0 -3 -22 -5
-50 -5 l-49 0 -42 70 c-41 70 -41 70 -85 70 l-44 0 0 -70 0 -70 -50 0 -50 0 0
68 c0 38 -3 137 -7 220 l-6 152 137 0 c93 0 147 -4 169 -14z m511 4 c49 -11
85 -37 111 -81 26 -44 27 -194 3 -249 -37 -81 -86 -100 -258 -100 l-127 0 -6
98 c-4 53 -7 152 -7 220 l0 122 123 0 c67 0 140 -5 161 -10z m644 -32 l-3 -43
-127 -3 -128 -3 0 -44 0 -45 95 0 95 0 0 -45 0 -45 -94 0 -94 0 -4 -45 -3 -45
127 0 128 0 0 -40 0 -40 -175 0 -175 0 0 53 c0 30 -3 129 -7 220 l-6 167 187
0 187 0 -3 -42z m367 -111 l90 -152 3 153 3 152 54 0 55 0 0 -62 c0 -35 -3
-134 -7 -220 l-6 -158 -62 0 -61 0 -90 146 -89 146 -6 -73 c-4 -41 -7 -107 -8
-146 l-1 -73 -50 0 -50 0 0 220 0 220 68 0 67 0 90 -153z m-5260 -744 c55
-136 101 -222 120 -225 39 -6 14 -23 -37 -26 -48 -2 -51 -1 -35 12 17 13 18
19 7 50 -11 36 -12 36 -69 36 -52 0 -59 -2 -69 -25 -17 -38 -15 -55 8 -55 11
0 20 -4 20 -10 0 -5 -25 -10 -55 -10 -30 0 -55 5 -55 10 0 6 9 10 19 10 16 0
27 23 62 128 23 70 44 130 46 135 9 16 24 5 38 -30z m1092 31 c27 -8 20 -24
-10 -25 -14 0 -40 -21 -69 -56 -45 -53 -48 -59 -48 -115 0 -52 2 -58 21 -58
41 0 12 -22 -34 -26 -45 -3 -64 10 -32 22 11 4 15 21 15 58 -1 44 -7 59 -43
111 -26 37 -50 60 -62 60 -10 0 -20 6 -22 13 -4 9 12 12 59 11 60 0 62 -1 40
-16 l-22 -16 27 -36 c14 -20 28 -38 30 -41 5 -5 82 82 83 93 0 4 -7 7 -15 7
-8 0 -15 5 -15 10 0 11 62 13 97 4z m739 -99 c25 -55 50 -112 56 -127 5 -16
18 -28 31 -30 41 -6 17 -23 -35 -26 -46 -2 -51 0 -35 12 20 16 21 26 5 61 -10
23 -17 25 -69 25 -55 0 -57 -1 -68 -31 -15 -44 -14 -49 9 -49 11 0 20 -4 20
-9 0 -10 -44 -17 -82 -13 -31 4 -38 22 -9 22 16 0 27 23 62 128 23 70 44 131
46 135 11 18 26 -3 69 -98z m323 99 c17 -4 43 -17 57 -31 22 -20 25 -30 21
-60 -4 -20 -15 -46 -27 -58 -18 -19 -18 -23 -5 -41 8 -10 15 -29 15 -42 0 -14
8 -26 22 -31 32 -12 5 -23 -38 -15 -25 5 -32 10 -25 17 15 15 14 50 -1 65 -7
7 -36 12 -65 12 l-53 0 0 -35 c0 -24 5 -35 15 -35 8 0 15 -4 15 -10 0 -5 -21
-10 -47 -10 -42 1 -46 2 -30 14 14 11 17 30 17 120 0 101 -1 107 -22 115 -23
9 -23 9 22 24 22 8 93 8 129 1z m379 -46 c2 -29 -1 -48 -7 -48 -6 0 -11 9 -11
19 0 42 -10 51 -61 51 l-49 0 0 -49 c0 -35 4 -51 16 -55 21 -8 34 1 34 25 0
23 15 25 24 3 12 -30 7 -84 -8 -84 -8 0 -17 7 -20 16 -3 9 -15 14 -28 12 -20
-3 -23 -9 -23 -43 l0 -40 45 0 c63 0 70 3 70 36 0 20 5 29 16 29 12 0 14 -9
12 -42 l-3 -43 -94 -3 c-56 -2 -98 1 -105 8 -7 7 -5 10 6 10 12 0 16 17 22 77
10 118 8 143 -9 143 -18 0 -20 16 -2 24 6 2 48 4 92 3 l80 -2 3 -47z m203 10
c33 -67 93 -168 100 -168 4 0 9 35 11 78 4 59 2 79 -8 85 -27 15 -14 27 31 27
25 0 45 -4 45 -10 0 -5 -7 -10 -15 -10 -8 0 -15 -6 -16 -12 -9 -121 -26 -223
-37 -223 -7 0 -40 47 -72 105 -59 103 -60 104 -60 65 0 -22 -3 -64 -6 -92 -6
-49 -5 -53 15 -53 12 0 21 -6 21 -15 0 -11 -12 -15 -50 -15 -27 0 -50 5 -50
10 0 6 6 10 14 10 19 0 28 62 24 160 -3 69 -5 75 -25 78 -38 6 -25 22 17 22
37 0 41 -3 61 -42z m809 -29 c19 -36 46 -83 59 -105 l25 -39 7 30 c13 59 10
132 -7 139 -28 11 -4 26 42 26 45 0 60 -14 25 -23 -16 -4 -20 -17 -26 -73 -12
-136 -17 -164 -28 -164 -7 0 -37 45 -67 100 -30 55 -58 100 -62 100 -5 0 -8
-38 -8 -84 0 -78 1 -84 22 -90 40 -10 5 -28 -48 -23 -38 3 -44 5 -27 11 19 7
21 16 25 99 4 113 0 138 -23 144 -34 9 -20 24 19 21 34 -3 39 -7 72 -69z
m-3920 51 c0 -5 -11 -10 -26 -10 -24 0 -25 -2 -22 -52 l3 -53 47 -3 c67 -4 88
10 88 58 0 33 -3 40 -19 40 -11 0 -23 5 -26 10 -4 6 15 10 50 10 35 0 54 -4
50 -10 -3 -5 -13 -10 -21 -10 -11 0 -14 -21 -14 -109 0 -102 1 -109 21 -114
33 -9 12 -27 -31 -27 -40 0 -61 14 -36 23 16 6 29 67 20 91 -5 12 -20 16 -70
16 l-64 0 0 -50 c0 -43 3 -52 23 -59 25 -10 15 -16 -45 -24 -40 -6 -64 11 -30
20 17 4 21 15 24 71 5 109 -1 172 -17 172 -8 0 -17 5 -20 10 -4 6 17 10 54 10
34 0 61 -4 61 -10z m785 -15 c18 -17 25 -35 25 -63 0 -53 -31 -80 -109 -95
-58 -11 -61 -13 -61 -40 0 -20 6 -30 20 -34 11 -3 20 -9 20 -13 0 -8 -72 -18
-89 -12 -16 5 -13 22 4 22 12 0 15 19 15 110 0 93 -3 110 -17 119 -31 18 5 31
90 31 69 0 81 -3 102 -25z m330 -1 c32 -35 33 -84 3 -119 -17 -19 -40 -29 -85
-37 -60 -11 -63 -13 -63 -41 0 -20 6 -30 20 -34 37 -10 20 -23 -30 -23 -27 0
-50 5 -50 10 0 6 7 10 15 10 12 0 15 19 15 111 0 105 -1 111 -21 116 -21 6
-21 7 -4 20 12 8 47 13 97 13 73 0 81 -2 103 -26z m816 -3 c31 -31 35 -53 19
-95 -11 -31 -50 -52 -113 -61 -45 -7 -47 -8 -47 -41 0 -28 4 -34 22 -34 33 0
9 -16 -33 -23 -43 -6 -77 9 -41 19 20 6 22 13 22 68 0 98 -11 166 -26 166 -20
0 -17 18 4 23 9 3 50 5 90 6 69 1 75 -1 103 -28z m1789 14 c-8 -10 -15 -57
-17 -124 -4 -94 -2 -109 12 -115 26 -10 7 -26 -31 -26 -35 0 -46 13 -19 24 13
5 15 25 13 118 -3 109 -4 113 -25 116 -43 6 -23 22 28 22 45 0 50 -2 39 -15z
m642 -15 c17 -16 35 -30 39 -30 21 0 6 -19 -22 -29 -35 -12 -61 -4 -35 11 26
15 2 48 -35 48 -46 0 -68 -17 -94 -72 -19 -41 -21 -55 -13 -79 22 -63 145 -84
163 -29 9 29 -2 40 -41 40 -21 0 -33 4 -29 10 3 6 35 10 71 10 36 0 64 -4 64
-10 0 -5 -7 -10 -16 -10 -14 0 -16 -8 -10 -46 6 -44 5 -46 -15 -41 -12 3 -33
1 -47 -4 -44 -17 -103 0 -139 38 -48 50 -42 115 15 177 51 54 98 59 144 16z
m-794 -17 c2 -19 -1 -33 -7 -33 -6 0 -11 9 -11 20 0 17 -7 20 -39 20 -38 0
-38 0 -45 -46 -11 -85 -7 -133 13 -153 11 -11 17 -22 14 -25 -10 -10 -73 -7
-73 4 0 6 4 10 9 10 5 0 10 47 10 104 1 95 -1 105 -18 111 -29 9 -72 -5 -69
-23 2 -8 -3 -17 -9 -19 -9 -3 -13 6 -13 25 0 16 2 31 4 33 2 2 55 4 118 4
l113 0 3 -32z"/>
<path d="M5477 2613 c-5 -8 -47 -116 -47 -120 0 -6 97 -3 103 3 6 7 -29 103
-43 117 -4 5 -10 5 -13 0z"/>
<path d="M5960 2620 l0 -61 77 3 77 3 10 32 c7 25 5 38 -8 58 -15 23 -23 25
-86 25 l-70 0 0 -60z"/>
<path d="M6490 2561 c0 -66 -3 -127 -7 -136 -5 -16 2 -17 75 -14 107 5 124 21
130 114 8 116 -28 155 -143 155 l-55 0 0 -119z"/>
<path d="M2368 1801 c-9 -28 -14 -52 -11 -55 4 -4 74 4 81 9 5 4 -41 95 -48
95 -3 0 -13 -22 -22 -49z"/>
<path d="M4168 1801 c-9 -28 -14 -52 -11 -55 4 -4 74 4 81 9 5 4 -41 95 -48
95 -3 0 -13 -22 -22 -49z"/>
<path d="M4468 1883 c-2 -5 -2 -38 0 -75 l4 -68 39 0 c45 0 94 21 103 45 3 9
6 30 6 46 0 25 -6 33 -35 45 -36 15 -111 19 -117 7z"/>
<path d="M2675 1870 c-3 -5 -3 -37 1 -71 l7 -61 50 5 c39 3 56 11 74 31 29 34
29 51 -2 81 -19 20 -34 25 -74 25 -27 0 -53 -4 -56 -10z"/>
<path d="M3000 1863 c0 -10 3 -42 7 -72 l6 -53 49 4 c80 8 117 69 73 118 -25
28 -135 29 -135 3z"/>
<path d="M3821 1809 l2 -71 55 4 c61 5 92 30 92 74 0 42 -33 64 -95 64 l-55 0
1 -71z"/>
</g>
</svg>
